<svg width="53" height="34" viewBox="0 0 53 34" fill="none" xmlns="http://www.w3.org/2000/svg">
<path d="M6.82037 7.76026C6.70743 7.76026 6.59355 7.72617 6.49379 7.65515L1.61116 4.17029C1.46151 4.06422 1.37305 3.89093 1.37305 3.70722V2.09357C1.37305 1.78013 1.62621 1.52539 1.93773 1.52539H3.95836C4.07506 1.52539 4.18894 1.56232 4.28494 1.62956L11.0451 6.44586C11.2993 6.62768 11.3595 6.98185 11.1797 7.23753C11 7.49321 10.647 7.55382 10.3929 7.37295L3.7786 2.66176H2.50242V3.41365L7.14789 6.72901C7.40199 6.91083 7.46223 7.26499 7.28153 7.52068C7.17141 7.67693 6.9973 7.76026 6.82037 7.76026Z" fill="black"/>
<path d="M23.4071 16.4674H21.3865C21.2698 16.4674 21.1559 16.4304 21.0599 16.3632L14.0804 11.3906C13.8263 11.2088 13.7661 10.8547 13.9458 10.599C14.1256 10.3433 14.4785 10.2827 14.7326 10.4636L21.5653 15.3319H22.8415V14.58L18.341 11.367C18.0868 11.1851 18.0266 10.831 18.2073 10.5743C18.388 10.3187 18.74 10.2581 18.995 10.4399L23.7337 13.8225C23.8833 13.9285 23.9718 14.1018 23.9718 14.2855V15.8992C23.9718 16.2126 23.7186 16.4674 23.4071 16.4674Z" fill="black"/>
<path d="M5.92168 16.6707C5.92168 16.6707 5.91697 16.6707 5.91509 16.6707L1.75807 16.6214C1.5162 16.6177 1.30444 16.4595 1.23009 16.2285C1.15574 15.9974 1.23574 15.7436 1.42961 15.5987L1.49079 15.5533L8.32347 10.4472C8.57381 10.2597 8.92768 10.3127 9.11309 10.5646C9.29943 10.8165 9.24673 11.1726 8.99638 11.3591L3.44836 15.505L5.73816 15.5315L10.3817 12.0551C10.6321 11.8676 10.986 11.9197 11.1723 12.1716C11.3586 12.4235 11.3069 12.7796 11.0565 12.9671L6.25955 16.558C6.16167 16.6309 6.04403 16.6707 5.92262 16.6707H5.92168Z" fill="black"/>
<path d="M16.449 7.75997C16.2721 7.75997 16.098 7.67664 15.9879 7.52039C15.8072 7.26471 15.8674 6.90959 16.1224 6.72872L21.7627 2.70977L19.4597 2.6842L14.7333 6.05731C14.4792 6.23913 14.1263 6.17853 13.9456 5.92284C13.7649 5.66716 13.8251 5.31205 14.0792 5.13023L18.9553 1.6501C19.0522 1.58097 19.167 1.5431 19.2884 1.54499L23.516 1.59139C23.7607 1.59423 23.9763 1.75522 24.0487 1.99007C24.1212 2.22492 24.0355 2.4806 23.836 2.62264L16.7746 7.65391C16.6758 7.72493 16.562 7.75808 16.449 7.75808V7.75997Z" fill="black"/>
<path d="M14.4069 16.7337H10.7185C10.407 16.7337 10.1539 16.4789 10.1539 16.1655V11.4714H2.0017C1.69018 11.4714 1.43701 11.2166 1.43701 10.9032V7.19199C1.43701 6.87854 1.69018 6.6238 2.0017 6.6238H10.1539V2.05939C10.1539 1.74595 10.407 1.49121 10.7185 1.49121H14.4069C14.7184 1.49121 14.9716 1.74595 14.9716 2.05939V6.6238H23.3533C23.6649 6.6238 23.918 6.87854 23.918 7.19199V10.9032C23.918 11.2166 23.6649 11.4714 23.3533 11.4714H14.9716V16.1655C14.9716 16.4789 14.7184 16.7337 14.4069 16.7337ZM11.2832 15.5973H13.8422V10.9032C13.8422 10.5897 14.0954 10.335 14.4069 10.335H22.7887V7.76017H14.4069C14.0954 7.76017 13.8422 7.50543 13.8422 7.19199V2.62758H11.2832V7.19199C11.2832 7.50543 11.0301 7.76017 10.7185 7.76017H2.56638V10.335H10.7185C11.0301 10.335 11.2832 10.5897 11.2832 10.9032V15.5973Z" fill="black"/>
<path d="M51.7185 33.1431H1.17643C0.527039 33.1431 0 32.6128 0 31.9594V1.18372C0 0.530305 0.527039 0 1.17643 0H51.7185C52.3679 0 52.8949 0.530305 52.8949 1.18372V31.9594C52.8949 32.6128 52.3679 33.1431 51.7185 33.1431ZM2.35285 30.7757H50.5421V2.36743H2.35285V30.7757Z" fill="black"/>
<path d="M38.6632 4.81126C39.419 4.81126 40.0307 5.42774 40.0307 6.18721C40.0307 6.94668 39.418 7.56316 38.6632 7.56316C37.9084 7.56316 37.2958 6.94668 37.2958 6.18721C37.2958 5.42774 37.9084 4.81126 38.6632 4.81126ZM38.6632 3.95898C37.4416 3.95898 36.4487 4.95899 36.4487 6.18721C36.4487 7.41544 37.4426 8.41544 38.6632 8.41544C39.8839 8.41544 40.8777 7.41544 40.8777 6.18721C40.8777 4.95899 39.8839 3.95898 38.6632 3.95898Z" fill="black"/>
<path d="M45.1286 11.1921C45.8843 11.1921 46.496 11.8086 46.496 12.5681C46.496 13.3275 45.8834 13.944 45.1286 13.944C44.3738 13.944 43.7611 13.3275 43.7611 12.5681C43.7611 11.8086 44.3738 11.1921 45.1286 11.1921ZM45.1286 10.3398C43.907 10.3398 42.9141 11.3398 42.9141 12.5681C42.9141 13.7963 43.9079 14.7963 45.1286 14.7963C46.3492 14.7963 47.3431 13.7963 47.3431 12.5681C47.3431 11.3398 46.3492 10.3398 45.1286 10.3398Z" fill="black"/>
<path d="M31.9489 11.1921C32.7046 11.1921 33.3164 11.8086 33.3164 12.5681C33.3164 13.3275 32.7037 13.944 31.9489 13.944C31.1941 13.944 30.5814 13.3275 30.5814 12.5681C30.5814 11.8086 31.1941 11.1921 31.9489 11.1921ZM31.9489 10.3398C30.7273 10.3398 29.7344 11.3398 29.7344 12.5681C29.7344 13.7963 30.7282 14.7963 31.9489 14.7963C33.1695 14.7963 34.1634 13.7963 34.1634 12.5681C34.1634 11.3398 33.1695 10.3398 31.9489 10.3398Z" fill="black"/>
<path d="M38.2902 23.0144C39.0459 23.0144 39.6577 23.6309 39.6577 24.3903C39.6577 25.1498 39.045 25.7663 38.2902 25.7663C37.5354 25.7663 36.9227 25.1498 36.9227 24.3903C36.9227 23.6309 37.5354 23.0144 38.2902 23.0144ZM38.2902 22.1621C37.0686 22.1621 36.0757 23.1621 36.0757 24.3903C36.0757 25.6186 37.0695 26.6186 38.2902 26.6186C39.5108 26.6186 40.5047 25.6186 40.5047 24.3903C40.5047 23.1621 39.5108 22.1621 38.2902 22.1621Z" fill="black"/>
<path d="M41.2737 15.571C41.7547 15.571 42.1443 15.9631 42.1443 16.447C42.1443 16.9309 41.7547 17.3229 41.2737 17.3229C40.7928 17.3229 40.4032 16.9309 40.4032 16.447C40.4032 15.9631 40.7928 15.571 41.2737 15.571ZM41.2737 14.7188C40.3269 14.7188 39.5562 15.4943 39.5562 16.447C39.5562 17.3996 40.3269 18.1752 41.2737 18.1752C42.2205 18.1752 42.9913 17.3996 42.9913 16.447C42.9913 15.4943 42.2205 14.7188 41.2737 14.7188Z" fill="black"/>
<path d="M11.9319 23.1394C13.0989 23.1394 14.0457 24.092 14.0457 25.2663C14.0457 26.4405 13.0989 27.3932 11.9319 27.3932C10.7649 27.3932 9.81812 26.4405 9.81812 25.2663C9.81812 24.092 10.7649 23.1394 11.9319 23.1394ZM11.9319 22.1147C10.2049 22.1147 8.7998 23.5286 8.7998 25.2663C8.7998 27.004 10.2049 28.4178 11.9319 28.4178C13.6589 28.4178 15.064 27.004 15.064 25.2663C15.064 23.5286 13.6589 22.1147 11.9319 22.1147Z" fill="black"/>
</svg>
