<svg width="54" height="34" viewBox="0 0 54 34" fill="none" xmlns="http://www.w3.org/2000/svg">
<path d="M52.6135 33.1431H2.07145C1.42206 33.1431 0.89502 32.6128 0.89502 31.9594V1.18372C0.89502 0.530305 1.42206 0 2.07145 0H52.6135C53.2629 0 53.7899 0.530305 53.7899 1.18372V31.9594C53.7899 32.6128 53.2629 33.1431 52.6135 33.1431ZM3.24787 30.7757H51.4371V2.36743H3.24787V30.7757Z" fill="black"/>
<path d="M52.6448 16.9063H34.5467C34.157 16.9063 33.8408 16.5881 33.8408 16.1961C33.8408 15.804 34.157 15.4858 34.5467 15.4858H52.6448C53.0344 15.4858 53.3507 15.804 53.3507 16.1961C53.3507 16.5881 53.0344 16.9063 52.6448 16.9063Z" fill="black"/>
<path d="M20.1386 16.9063H2.28984C1.90021 16.9063 1.58398 16.5881 1.58398 16.1961C1.58398 15.804 1.90021 15.4858 2.28984 15.4858H20.1386C20.5282 15.4858 20.8444 15.804 20.8444 16.1961C20.8444 16.5881 20.5282 16.9063 20.1386 16.9063Z" fill="black"/>
<path d="M27.3431 24.4758C22.9772 24.4758 19.4263 20.9019 19.4263 16.5099C19.4263 12.1178 22.9781 8.54395 27.3431 8.54395C31.7082 8.54395 35.26 12.1178 35.26 16.5099C35.26 20.9019 31.7082 24.4758 27.3431 24.4758ZM27.3431 9.96346C23.7555 9.96346 20.838 12.9 20.838 16.5089C20.838 20.1178 23.7565 23.0544 27.3431 23.0544C30.9298 23.0544 33.8483 20.1178 33.8483 16.5089C33.8483 12.9 30.9298 9.96346 27.3431 9.96346Z" fill="black"/>
</svg>
