<svg width="13" height="19" viewBox="0 0 13 19" fill="none" xmlns="http://www.w3.org/2000/svg">
<path d="M9.936 9.336L9.168 9.984C8.96 10.16 8.776 10.336 8.616 10.512C8.472 10.688 8.352 10.872 8.256 11.064C8.176 11.256 8.136 11.464 8.136 11.688V12.24H4.224V11.712C4.224 11.12 4.296 10.624 4.44 10.224C4.584 9.808 4.792 9.432 5.064 9.096C5.352 8.76 5.688 8.424 6.072 8.088L6.744 7.488C7.08 7.184 7.376 6.904 7.632 6.648C7.904 6.376 8.04 6.016 8.04 5.568C8.04 5.056 7.84 4.664 7.44 4.392C7.04 4.104 6.512 3.96 5.856 3.96C5.312 3.96 4.744 4.08 4.152 4.32C3.56 4.544 2.96 4.864 2.352 5.28L0.48 2.424C1.216 1.816 2.056 1.344 3 1.008C3.96 0.656 4.936 0.48 5.928 0.48C7.144 0.48 8.208 0.679999 9.12 1.08C10.048 1.48 10.768 2.048 11.28 2.784C11.808 3.504 12.072 4.36 12.072 5.352C12.072 6.008 11.96 6.584 11.736 7.08C11.528 7.56 11.264 7.984 10.944 8.352C10.624 8.704 10.288 9.032 9.936 9.336ZM6.168 18.24C5.512 18.24 4.952 18.008 4.488 17.544C4.024 17.064 3.792 16.496 3.792 15.84C3.792 15.184 4.024 14.632 4.488 14.184C4.952 13.72 5.512 13.488 6.168 13.488C6.84 13.488 7.408 13.72 7.872 14.184C8.336 14.632 8.568 15.184 8.568 15.84C8.568 16.496 8.336 17.064 7.872 17.544C7.408 18.008 6.84 18.24 6.168 18.24Z" fill="black"/>
</svg>
