<svg width="20" height="22" viewBox="0 0 20 22" fill="none" xmlns="http://www.w3.org/2000/svg">
<path fill-rule="evenodd" clip-rule="evenodd" d="M13.8474 0.669767C14.4562 1.27423 14.522 1.48641 14.522 2.84657V4.3536H17.0528C19.3848 4.3536 19.6039 4.39118 19.8421 4.83318C20.1862 5.47156 19.9408 6.35007 19.3685 6.53063C19.1148 6.61037 18.9034 6.74625 18.8988 6.83217C18.8939 6.91833 18.6488 9.82699 18.3543 13.2961C17.7713 20.1592 17.6252 20.7456 16.2994 21.548C15.6209 21.9589 15.109 21.9955 10.0213 21.9955C2.00225 21.9955 2.46639 22.4861 1.68743 13.1848C1.36869 9.37926 1.0511 6.73158 0.907539 6.68415C-0.0182183 6.3778 -0.334883 4.9961 0.427696 4.59076C0.673272 4.46038 1.91962 4.3536 3.19735 4.3536H5.52063V2.88185C5.52063 1.6326 5.61111 1.30333 6.11819 0.705054L6.71574 0H9.94424H13.1727L13.8474 0.669767ZM7.82868 3.32248V4.3536H10.0213H12.214V3.32248V2.29137H10.0213H7.82868V3.32248ZM4.06449 12.8601C4.36292 16.3986 4.70197 19.2111 4.85199 19.3905C5.23767 19.8517 14.805 19.8517 15.1907 19.3905C15.3407 19.2111 15.6797 16.3986 15.9782 12.8601L16.5021 6.64497H10.0213H3.54056L4.06449 12.8601ZM13.0054 9.06717C13.3061 9.36597 13.368 10.0813 13.368 13.2604C13.368 17.3058 13.2856 17.6435 12.2996 17.6435C11.1807 17.6435 11.0599 17.21 11.0599 13.1946C11.0599 9.87305 11.1061 9.42417 11.4821 9.08642C12.012 8.61028 12.5383 8.60363 13.0054 9.06717ZM8.60072 9.12629C8.92293 9.47962 8.9827 10.1233 8.9827 13.2343C8.9827 17.2068 8.85992 17.6435 7.74305 17.6435C6.75705 17.6435 6.67466 17.3058 6.67466 13.2604C6.67466 10.0813 6.73651 9.36597 7.03725 9.06717C7.51917 8.58897 8.13196 8.61188 8.60072 9.12629Z" fill="#181818"/>
</svg>
