<svg width="46" height="46" viewBox="0 0 46 46" fill="none" xmlns="http://www.w3.org/2000/svg">
<path fill-rule="evenodd" clip-rule="evenodd" d="M22.5304 0.336914C23.1934 0.336914 23.8292 0.600314 24.2982 1.06914L34.2982 11.0691C35.2744 12.0455 35.2744 13.6284 34.2982 14.6047C33.3219 15.581 31.7389 15.581 30.7627 14.6047L25.0304 8.87244V30.3369C25.0304 31.7177 23.9112 32.8369 22.5304 32.8369C21.1497 32.8369 20.0304 31.7177 20.0304 30.3369V8.87244L14.2981 14.6047C13.3218 15.581 11.7389 15.581 10.7626 14.6047C9.7863 13.6284 9.78627 12.0455 10.7626 11.0691L20.7627 1.06914C21.2314 0.600314 21.8674 0.336914 22.5304 0.336914ZM2.53037 27.8369C3.91107 27.8369 5.03037 28.9562 5.03037 30.3369C5.03037 32.7799 5.04247 33.6364 5.17447 34.3002C5.76627 37.2752 8.092 39.6009 11.0672 40.1929C11.7308 40.3249 12.5872 40.3369 15.0304 40.3369H30.0304C32.4734 40.3369 33.3299 40.3249 33.9934 40.1929C36.9687 39.6009 39.2944 37.2752 39.8862 34.3002C40.0182 33.6364 40.0304 32.7799 40.0304 30.3369C40.0304 28.9562 41.1497 27.8369 42.5304 27.8369C43.9112 27.8369 45.0304 28.9562 45.0304 30.3369C45.0304 30.4349 45.0304 30.5312 45.0304 30.6262C45.0309 32.6704 45.0312 34.0634 44.7902 35.2757C43.8039 40.2342 39.9277 44.1104 34.9689 45.0967C33.7569 45.3379 32.3637 45.3374 30.3199 45.3369C30.2247 45.3369 30.1282 45.3369 30.0304 45.3369H15.0304C14.9324 45.3369 14.836 45.3369 14.7409 45.3369C12.6969 45.3374 11.3037 45.3379 10.0917 45.0967C5.1331 44.1104 1.25687 40.2342 0.270546 35.2757C0.0294713 34.0634 0.0297961 32.6704 0.0303211 30.6264C0.0303461 30.5312 0.0303712 30.4349 0.0303712 30.3369C0.0303712 28.9562 1.14965 27.8369 2.53037 27.8369Z" fill="#0F1729"/>
</svg>
