<svg width="22" height="22" viewBox="0 0 22 22" fill="none" xmlns="http://www.w3.org/2000/svg">
<path fill-rule="evenodd" clip-rule="evenodd" d="M9.83072 0.390545C9.90257 0.279478 10.0163 0.181694 10.1573 0.10985C10.2763 0.0491869 10.4394 -0.000251274 10.5197 9.60914e-07C10.7569 0.000673588 11.0754 0.177617 11.2078 0.382179L11.3235 0.560972V2.12256V3.68415L11.2075 3.86349C11.055 4.09908 10.7203 4.26513 10.4588 4.23499C10.204 4.2056 9.98605 4.07637 9.84375 3.87034L9.72044 3.6918V2.12639V0.560972L9.83072 0.390545ZM0.0496614 5.18377C0.072803 4.89832 0.236479 4.64773 0.488775 4.51152C0.706626 4.3939 0.982311 4.3849 1.2 4.48836C1.28389 4.52821 1.67183 4.85406 2.06207 5.21244C3.15679 6.21772 3.37617 6.43914 3.4573 6.62075C3.77656 7.335 2.99842 8.07653 2.31934 7.70524C2.24334 7.6637 1.73443 7.21582 1.18841 6.71C0.0780232 5.68135 0.0160384 5.59828 0.0496614 5.18377ZM17.967 6.15832C18.7286 5.42419 19.7051 4.55415 19.8439 4.48605C20.0758 4.37233 20.4222 4.406 20.6409 4.56352C20.8592 4.72079 21.0035 4.99485 21.0035 5.25217C21.0035 5.61513 20.8985 5.74794 19.832 6.73485C18.8506 7.64298 18.6949 7.76279 18.4412 7.80487C17.995 7.87895 17.5115 7.438 17.5115 6.95707C17.5115 6.69546 17.6355 6.47786 17.967 6.15832ZM6.13021 7.78175C7.34849 7.19854 8.73222 6.83309 9.94651 6.7739C11.3064 6.70765 12.422 6.85752 13.6459 7.27093C15.4742 7.88853 16.972 8.86119 18.4991 10.4225C19.3975 11.3411 20.0173 12.133 20.5683 13.0661C20.6862 13.2658 20.7763 13.4234 20.8447 13.553C20.9673 13.701 21.0433 13.8944 21.0439 14.0994C21.044 14.1123 21.0438 14.125 21.0433 14.1377C21.0438 14.1504 21.044 14.1632 21.0439 14.1761C21.0433 14.381 20.9673 14.5745 20.8447 14.7224C20.7763 14.8521 20.6862 15.0097 20.5683 15.2093C20.0173 16.1425 19.3975 16.9344 18.4991 17.8529C16.972 19.4142 15.4742 20.3869 13.6459 21.0045C12.422 21.4179 11.3064 21.5678 9.94651 21.5015C8.73222 21.4423 7.34849 21.0769 6.13021 20.4937C3.70956 19.3349 1.47909 17.1654 0.208898 14.734C0.20619 14.7288 0.203516 14.7237 0.200876 14.7186C0.0661878 14.5604 0.000638894 14.3805 7.81151e-06 14.1703C-2.52944e-05 14.1591 4.56716e-05 14.1483 0.000242851 14.1377C4.56716e-05 14.1272 -2.52944e-05 14.1163 7.81151e-06 14.1052C0.000638894 13.8949 0.0661877 13.715 0.200875 13.5568C0.203516 13.5518 0.20619 13.5466 0.208898 13.5415C1.47909 11.1101 3.70956 8.94052 6.13021 7.78175ZM1.79815 14.1377C1.83882 14.2084 1.88078 14.2815 1.92145 14.3523C2.6289 15.5841 3.76271 16.8649 4.95238 17.7761C6.86651 19.2421 9.06824 19.9634 11.1045 19.7914C13.2156 19.6131 15.1362 18.7034 16.9547 17.0205C17.8193 16.2205 18.6832 15.1324 19.2484 14.1377C18.6832 13.1431 17.8193 12.0549 16.9547 11.2549C15.1362 9.57199 13.2156 8.66235 11.1045 8.48406C9.06824 8.31208 6.86651 9.03334 4.95238 10.4993C3.76271 11.4105 2.6289 12.6913 1.92145 13.9232C1.88078 13.994 1.83882 14.067 1.79815 14.1377ZM6.87777 12.3801C7.50629 11.05 8.70127 10.2031 10.1931 10.0305C10.4211 10.0041 11.052 10.0484 11.344 10.1113C13.0821 10.4858 14.364 11.9529 14.547 13.777C14.6291 14.5951 14.4842 15.3364 14.0913 16.1089C13.5646 17.1443 12.65 17.8823 11.5089 18.1927C11.1763 18.2832 11.0292 18.2991 10.522 18.2991C10.0148 18.2991 9.86767 18.2832 9.53502 18.1927C8.37914 17.8783 7.46844 17.1361 6.93848 16.0765C6.59707 15.3939 6.4796 14.8892 6.48416 14.1248C6.48802 13.4829 6.60801 12.951 6.87777 12.3801ZM12.1912 12.4595C11.8544 12.1149 11.4464 11.8814 11.0199 11.7889C10.2185 11.6152 9.44361 11.855 8.85278 12.4595C7.30073 14.0476 8.49451 16.7433 10.6829 16.5922C11.5488 16.5325 12.2758 16.0305 12.6582 15.2284C13.1042 14.293 12.9208 13.2059 12.1912 12.4595Z" fill="black"/>
</svg>
