<svg width="45" height="37" viewBox="0 0 45 37" fill="none" xmlns="http://www.w3.org/2000/svg">
<path fill-rule="evenodd" clip-rule="evenodd" d="M3.95884 0.0250308C2.99751 0.138061 2.04639 0.667221 1.44583 1.42313C0.991051 1.99558 0.700631 2.68636 0.616841 3.39486C0.591941 3.60547 0.0274509 32.1023 0.00173087 34.4473C-0.00594913 35.1473 0.00699078 35.2539 0.143521 35.6151C0.382681 36.2478 0.937911 36.7455 1.6188 36.9375C1.77047 36.9803 1.93507 36.9872 3.03166 36.9962C3.87713 37.0032 4.3393 36.9967 4.48122 36.9758C5.34803 36.8482 6.0469 36.2049 6.2663 35.3327C6.3103 35.1579 6.3195 35.0346 6.3195 34.6236C6.3195 34.3501 6.2243 29.1964 6.108 23.1711C5.94861 14.9112 5.9033 12.1614 5.92381 11.994C6.0129 11.2679 6.3016 10.6487 6.7943 10.127C7.2858 9.6065 7.8463 9.2922 8.5449 9.1453C9.2387 8.9994 10.0987 9.1293 10.6963 9.4702C11.1 9.7006 16.8812 13.4973 16.9543 13.5801C17.1255 13.774 17.1272 14.0773 16.9582 14.2723C16.9137 14.3237 15.4386 15.5607 13.6801 17.0213C11.5252 18.8112 10.4453 19.725 10.3676 19.8242C10.135 20.1212 10.011 20.4824 10.0092 20.8677C10.0079 21.1566 10.0482 21.3321 10.181 21.6169C10.2838 21.8373 10.3108 21.8686 11.0499 22.6214C11.5323 23.1129 11.8661 23.4313 11.9581 23.4878C12.5231 23.8348 13.2192 23.8207 13.763 23.4513C13.8852 23.3684 14.8958 22.3617 17.0941 20.1333C20.3184 16.8649 20.3018 16.8808 20.4111 16.9548C20.4271 16.9656 20.4526 16.9985 20.4679 17.028C20.4876 17.0661 20.4201 19.7167 20.233 26.246C19.9383 36.5317 19.9458 35.615 20.1528 36.0521C20.3408 36.4491 20.6787 36.7519 21.1071 36.9074L21.3328 36.9893L22.4163 36.9976C23.6599 37.0071 23.7509 36.9971 24.1174 36.8101C24.6463 36.5403 25.0143 35.9523 25.0178 35.3715C25.0184 35.2753 24.9032 31.1121 24.7618 26.1201C24.5116 17.2845 24.5061 17.0421 24.5536 16.989C24.5826 16.9565 24.6354 16.9343 24.6837 16.9343C24.7564 16.9343 25.1052 17.2788 27.9872 20.1961L31.2095 23.4578L31.434 23.5648C31.7162 23.6993 31.8774 23.7368 32.169 23.7359C32.5362 23.7347 32.8769 23.6202 33.1742 23.3979C33.2411 23.3479 33.6049 22.99 33.9826 22.6024C34.7133 21.8529 34.8162 21.7186 34.9225 21.3761C34.9522 21.2805 34.9832 21.0937 34.9913 20.9611C35.0183 20.5235 34.858 20.0707 34.5634 19.7522C34.4763 19.658 32.9732 18.3921 31.2233 16.9392C28.8418 14.962 28.0266 14.2708 27.9821 14.1911C27.9125 14.0666 27.9015 13.8495 27.9582 13.7158C27.9782 13.6685 28.0347 13.5915 28.0836 13.5448C28.1977 13.4359 34.1451 9.5545 34.3838 9.4331C35.4362 8.8981 36.651 8.9767 37.6455 9.6443C38.2793 10.0698 38.7649 10.7326 38.9703 11.4527C39.1177 11.9694 39.123 11.2125 38.8847 23.6195C38.6762 34.4748 38.6679 35.0192 38.7097 35.2233C38.8811 36.0617 39.4561 36.6889 40.2732 36.9289C40.4749 36.9881 40.5054 36.9893 41.839 36.9893C43.1766 36.9893 43.2024 36.9883 43.407 36.9282C43.9725 36.7623 44.4179 36.419 44.7148 35.9202C44.8613 35.6742 44.9838 35.2726 44.9996 34.987C45.0171 34.6697 44.4375 4.3032 44.4025 3.70257C44.3399 2.62931 43.9632 1.78575 43.2291 1.07463C42.6964 0.55861 42.0855 0.235511 41.3372 0.0740205C40.9436 -0.0109095 40.2549 -0.0116492 39.8666 0.0724708C39.4209 0.168991 38.9176 0.37269 38.5607 0.60099C38.4988 0.64057 35.3722 2.97112 31.6127 5.78C24.2702 11.2658 24.6792 10.9731 24.5539 10.8328C24.5068 10.78 24.5122 10.6491 24.7462 6.1836C24.9972 1.39308 24.9953 1.45791 24.8948 1.15359C24.7278 0.647791 24.3051 0.235191 23.7755 0.0610506C23.6489 0.0193806 23.4991 0.0119509 22.6047 0.00298085C21.4865 -0.00822915 21.3193 0.00665055 21.0107 0.144961C20.4134 0.412591 20.0242 1.0201 20.0263 1.68129C20.0267 1.80697 20.1327 3.89657 20.2618 6.3248C20.4889 10.5933 20.4951 10.7421 20.4494 10.8068C20.4127 10.8586 20.3791 10.8735 20.2997 10.8731C20.2052 10.8726 19.6647 10.4745 13.3561 5.7586C9.5935 2.94591 6.4088 0.582901 6.279 0.507471C5.59416 0.109611 4.74364 -0.0672292 3.95884 0.0250308Z" fill="black"/>
</svg>
