<svg width="177" height="86" viewBox="0 0 177 86" fill="none" xmlns="http://www.w3.org/2000/svg">
<path d="M15.296 20.64V58.4H33.984V68H4.928V20.64H15.296ZM78.4965 44.256C78.4965 58.72 68.9605 68.768 55.2005 68.768C41.5045 68.768 32.0965 58.784 32.0965 44.32C32.0965 29.856 41.5685 19.808 55.2645 19.808C69.0245 19.808 78.4965 29.792 78.4965 44.256ZM67.5525 44.256C67.5525 35.232 62.9445 29.792 55.3285 29.792C47.6485 29.792 43.0405 35.232 43.0405 44.256C43.0405 53.344 47.6485 58.784 55.3285 58.784C62.9445 58.784 67.5525 53.216 67.5525 44.256ZM103.513 29.6C94.9365 29.6 90.5205 35.616 90.5205 44.768C90.5205 54.304 95.8965 59.04 103.448 59.04C111.257 59.04 114.713 54.816 115.16 49.888H102.617V40.8H124.889V68H115.993L115.417 63.712C112.857 66.72 107.736 68.704 102.104 68.704C88.8565 68.704 79.5765 58.976 79.5765 44.448C79.5765 30.176 89.1125 19.872 103.769 19.872C115.097 19.872 123.801 26.528 124.889 36.768H114.008C112.792 31.776 108.441 29.6 103.513 29.6ZM173.707 44.256C173.707 58.72 164.171 68.768 150.411 68.768C136.715 68.768 127.307 58.784 127.307 44.32C127.307 29.856 136.779 19.808 150.475 19.808C164.235 19.808 173.707 29.792 173.707 44.256ZM162.763 44.256C162.763 35.232 158.155 29.792 150.539 29.792C142.859 29.792 138.251 35.232 138.251 44.256C138.251 53.344 142.859 58.784 150.539 58.784C158.155 58.784 162.763 53.216 162.763 44.256Z" fill="black"/>
</svg>
