<svg width="538" height="141" viewBox="0 0 538 141" fill="none" xmlns="http://www.w3.org/2000/svg">
<path fill-rule="evenodd" clip-rule="evenodd" d="M0.176432 2.14424L9.93476 2.42589L11.2913 4.00654V30.5888C11.2913 47.5151 11.1898 57.4384 11.0116 57.9071C10.533 59.1672 9.28446 59.461 4.40629 59.461H0.0357366V61.4371L32.8177 61.2917V59.0385L31.4107 59.0537C30.6369 59.0621 28.1677 59.1647 25.9236 59.2816C21.2691 59.5241 20.6495 59.3624 20.1005 57.7637C19.6618 56.4856 19.6013 36.992 20.0313 35.4423C20.4154 34.0577 21.8294 32.4658 23.2479 31.8208C24.1801 31.3969 25.1276 31.3068 28.7049 31.3017C31.2543 31.298 33.4927 31.4332 34.1503 31.6304C35.691 32.0923 37.8478 34.1191 38.739 35.9422C39.5961 37.6958 39.8296 39.8322 40.2317 49.6031C40.4529 54.9776 40.5517 55.8088 41.1105 56.9928C42.4128 59.7528 44.7233 61.1565 48.927 61.7418C52.7058 62.2679 55.9417 61.4235 57.9275 59.3934C60.0005 57.2739 60.0911 56.8571 60.2006 48.9291C60.305 41.3658 60.3202 41.4483 58.8102 41.4393C57.5839 41.4323 57.4967 41.8218 57.7401 46.2232C58.129 53.2533 58.0716 55.5375 57.4779 56.6489C56.7772 57.9606 55.4437 58.7089 53.8505 58.685C52.2479 58.6608 51.3087 58.0011 50.456 56.3008C49.8398 55.0714 49.79 54.5427 49.5415 46.5984C49.3955 41.9223 49.1307 37.6339 48.9444 36.9286C48.3237 34.5787 44.7317 31.7157 40.978 30.5787L39.8524 30.2379L41.1187 29.9145C48.6644 27.9866 53.5477 23.261 54.4194 17.0429C54.9634 13.1634 53.8189 9.07491 51.4164 6.31498C50.0644 4.76165 47.0909 2.82922 44.6231 1.89976C40.1091 0.199693 40.438 0.223071 19.3633 0.106747L0 0L0.176432 2.14424ZM62.896 0.43234C62.8108 0.654284 62.7829 1.13028 62.8338 1.48995C62.9256 2.1386 62.9675 2.14536 67.71 2.28901C70.341 2.36843 72.6982 2.53405 72.9481 2.65657C74.0278 3.18608 74.0413 3.53646 74.0413 31.0113V57.7395L72.6847 59.3201L62.9264 59.6018L62.7497 61.4356L113.858 61.2917L114.031 55.5178C114.127 52.3421 114.254 46.1317 114.313 41.7167L114.421 33.6896H111.888L111.909 34.8162C111.921 35.4358 112.029 38.0341 112.149 40.5901C112.363 45.1169 112.349 45.296 111.642 47.4906C110.723 50.3413 109.184 52.6948 106.706 55.0339C104.524 57.0939 101.524 58.7329 99.1171 59.1796C98.2834 59.3345 94.892 59.461 91.5806 59.461C84.8357 59.461 84.0124 59.2925 83.0531 57.7175C82.5089 56.8241 82.4853 56.3273 82.4903 45.8007C82.4948 35.7158 82.5382 34.7221 83.0165 33.6673C83.8061 31.9275 84.782 31.2949 86.6715 31.298C90.7072 31.3048 93.6869 35.0829 94.8878 41.7167C95.0699 42.7236 95.2975 45.3219 95.3935 47.4906L95.5677 51.4338H97.5374V8.90395L95.427 8.72904V11.4997C95.427 16.4622 94.5057 21.6449 93.1511 24.3029C92.3246 25.9241 90.4075 27.9154 89.0957 28.5153C86.5829 29.6642 84.0298 28.9048 83.0357 26.7127C82.5342 25.6072 82.4948 24.7665 82.4892 15.0201C82.4825 3.35535 82.4664 3.46125 84.3605 2.66924C85.7187 2.10114 97.523 2.12875 99.7342 2.70529C105.473 4.20144 110.649 9.76497 111.903 15.7862C112.243 17.4167 112.244 18.2478 111.909 21.6052C111.64 24.3023 111.609 25.6311 111.808 25.8736C112.183 26.3285 113.564 26.3285 113.937 25.8736C114.122 25.6486 114.261 20.9495 114.323 12.8471L114.421 0.172654L88.7358 0.100832C66.6551 0.0388683 63.0288 0.085623 62.896 0.43234ZM123.958 0.43234C123.872 0.654284 123.845 1.13028 123.895 1.48995C123.987 2.13494 124.049 2.14621 128.35 2.29013C130.748 2.37041 132.916 2.53574 133.166 2.65769C133.415 2.77965 133.764 3.19509 133.939 3.58124C134.381 4.55126 134.396 57.2703 133.955 58.0949C133.387 59.1565 132.015 59.461 127.796 59.461H123.847V61.4325H156.77V58.8146L154.346 59.001C147.923 59.4953 145.267 59.5435 144.395 59.1818C142.72 58.4876 142.7 58.3341 142.702 46.3077C142.703 39.2438 142.813 34.9857 143.013 34.2661C143.182 33.6538 143.739 32.7347 144.249 32.2241C145.073 31.3997 145.35 31.2955 146.718 31.2955C148.671 31.2955 150.016 31.8585 151.42 33.264C154.018 35.8642 155.324 40.2462 155.617 47.3498L155.785 51.4338H157.755V8.90395L155.644 8.72904V11.7377C155.644 22.6718 151.938 29.5152 146.31 28.9738C145.125 28.86 144.696 28.6668 144.071 27.9669C143.646 27.4903 143.164 26.6186 143.001 26.0294C142.818 25.3684 142.703 21.045 142.702 14.7384C142.7 3.38746 142.689 3.459 144.578 2.66924C145.938 2.1003 155.795 2.13494 158.024 2.71628C163.679 4.19046 169.008 9.97593 170.127 15.8558C170.453 17.5657 170.453 18.5585 170.13 22.2578C169.836 25.6323 169.825 26.6848 170.083 26.849C170.61 27.1842 171.867 27.1062 172.181 26.7186C172.36 26.4969 172.503 21.5187 172.567 13.2696L172.669 0.172654L148.39 0.100551C127.529 0.0388683 124.09 0.085623 123.958 0.43234ZM180.876 0.219691C180.507 0.58894 180.691 1.94426 181.133 2.1141C181.378 2.20817 183.539 2.28506 185.936 2.28506C188.518 2.28506 190.524 2.40899 190.86 2.58925C192.241 3.32916 192.225 2.99061 192.225 30.873C192.225 58.1239 192.217 58.3265 191.058 59.0745C190.849 59.2097 188.538 59.3835 185.924 59.461C181.956 59.5784 181.123 59.677 180.884 60.0564C180.727 60.3065 180.678 60.7183 180.775 60.9718C180.937 61.3937 183.099 61.4325 206.396 61.4325H231.841L232.021 56.8557C232.121 54.3385 232.229 48.0962 232.262 42.9842L232.323 33.6896L229.862 33.513L230.108 37.9668C230.428 43.772 230.353 45.3751 229.663 47.5137C228.04 52.5427 223.903 56.8472 218.957 58.6526C217.21 59.2903 216.803 59.3201 209.887 59.3201H202.647L200.526 57.1979V45.8663C200.526 34.6396 200.532 34.5235 201.162 33.3434C201.93 31.9039 203.007 31.2955 204.785 31.2955C208.415 31.2955 211.294 34.6024 212.63 40.3084C212.927 41.5767 213.194 44.2218 213.298 46.9273L213.47 51.4338H215.44L215.584 8.72904L213.47 8.90395L213.298 13.4104C213.104 18.4692 212.574 21.2323 211.291 23.8778C210.119 26.2964 208.964 27.5957 207.299 28.3716C204.604 29.6278 202.291 29.1087 201.162 26.9943C200.539 25.8275 200.525 25.5917 200.451 15.382C200.371 4.13103 200.369 4.14201 201.883 3.01624C202.625 2.46392 203.095 2.41998 209.199 2.33351C216.447 2.23071 217.763 2.39857 220.646 3.79389C223.379 5.1171 226.973 8.77636 228.43 11.7205C230.127 15.1502 230.379 16.7714 229.94 21.4534C229.739 23.5925 229.651 25.5416 229.745 25.7844C229.925 26.2556 231.222 26.3801 231.843 25.9857C232.127 25.8055 232.255 22.9912 232.423 13.2451C232.542 6.36511 232.585 0.577674 232.521 0.383895C232.428 0.10562 227.02 0.031827 206.734 0.031827C192.615 0.031827 180.979 0.116323 180.876 0.219691ZM241.937 0.219691C241.569 0.58894 241.753 1.94426 242.195 2.1141C242.44 2.20817 244.628 2.28506 247.057 2.28506C251.87 2.28506 252.362 2.41857 252.971 3.89331C253.211 4.47268 253.276 11.6521 253.221 31.2186L253.146 57.7584L252.366 58.5391C251.587 59.3193 251.581 59.3204 246.739 59.461L241.89 59.6018V61.2917H274.813L274.904 60.3406C274.954 59.8173 274.88 59.2742 274.739 59.1334C274.586 58.9799 272.465 59.0137 269.443 59.2176C266.67 59.4046 264.05 59.4691 263.619 59.361C263.175 59.2492 262.595 58.7723 262.277 58.2563C261.739 57.3843 261.72 56.9089 261.793 46.1767L261.869 35.0046L262.713 33.8053C263.178 33.146 264.116 32.3111 264.798 31.9509C265.952 31.3406 266.359 31.2958 270.707 31.2983C275.031 31.3008 275.48 31.3504 276.783 31.9678C278.591 32.8252 279.796 34.1129 280.756 36.2152C281.579 38.0186 281.576 37.9913 282.224 51.0392C282.458 55.7428 282.512 56.0729 283.285 57.4956C283.733 58.3203 284.598 59.357 285.208 59.7995C287.852 61.7179 293.691 62.464 296.872 61.2895C298.892 60.5436 300.609 58.9822 301.428 57.148C302.054 55.7445 302.098 55.2716 302.197 48.9592C302.274 43.9849 302.213 42.1536 301.959 41.8474C301.575 41.3847 299.842 41.2855 299.579 41.7114C299.485 41.8632 299.559 44.9538 299.744 48.5792C300.074 55.0708 300.07 55.1897 299.482 56.4067C298.636 58.1547 297.324 58.816 295.013 58.6585C294.67 58.6352 293.943 58.2239 293.398 57.7446C291.944 56.467 291.56 54.8537 291.534 49.9039C291.522 47.6472 291.421 43.8283 291.31 41.4176C291.123 37.3488 291.054 36.9413 290.346 35.7316C289.119 33.6369 286.635 31.8847 283.266 30.7387L281.864 30.2615L283.966 29.6301C290.111 27.7847 294.14 24.3288 295.761 19.5133C296.551 17.1654 296.566 12.8902 295.792 10.6384C293.882 5.08246 288.825 1.6919 280.582 0.44079C278.468 0.120266 274.16 0.0349252 260.017 0.0335169C250.176 0.0326719 242.04 0.116323 241.937 0.219691ZM304.922 2.14424L314.68 2.42589L316.045 4.01611L315.896 58.0372L315.256 58.6785C314.652 59.2838 314.342 59.328 309.769 59.461L304.922 59.6018L304.745 61.4325H355.702L355.833 60.7988C355.938 60.2952 356.335 42.4414 356.402 35.2387L356.416 33.6896L355.324 33.6C354.723 33.5507 354.106 33.636 353.953 33.7896C353.768 33.9743 353.791 35.8183 354.019 39.2306C354.422 45.2506 354.187 46.8595 352.408 50.2754C350.899 53.1741 347.492 56.5318 344.727 57.8454C341.724 59.2728 340.402 59.461 333.399 59.4598C327.703 59.459 327.072 59.4106 326.252 58.9101C324.292 57.7139 324.338 58.0248 324.338 45.8125C324.338 34.8362 324.339 34.8136 325 33.4707C325.786 31.8729 326.752 31.2932 328.615 31.3017C332.695 31.3203 335.799 35.3533 336.848 41.9984C337.11 43.6607 337.427 48.7457 337.423 51.2395C337.423 51.4938 337.75 51.5814 338.478 51.5211L339.533 51.4338V8.90395L338.478 8.81664C337.312 8.72003 337.355 8.63215 337.416 11.0164C337.48 13.4763 336.89 18.5763 336.283 20.8205C334.858 26.0908 332.043 29.0423 328.443 29.0423C327.344 29.0423 326.865 28.8831 326.15 28.2809C324.397 26.8045 324.362 26.566 324.262 15.382C324.137 1.29477 323.424 2.21775 334.327 2.35125C341.423 2.43828 341.523 2.44786 343.332 3.21115C347.174 4.83263 350.531 8.05335 352.493 12.0022C353.949 14.9308 354.192 16.7165 353.804 21.6502C353.447 26.1854 353.476 26.2916 355.009 26.1584C355.841 26.086 355.856 26.0564 356.026 24.1133C356.12 23.0289 356.247 17.1987 356.307 11.1572L356.416 0.172654L304.747 0.0290104L304.922 2.14424ZM366.798 0.429805C366.713 0.653157 366.684 1.13028 366.735 1.48995C366.825 2.12593 366.926 2.14818 370.345 2.28506C374.698 2.45941 375.938 3.00216 377.083 5.23512L377.802 6.63578V26.0776C377.802 43.7382 377.754 45.79 377.281 48.4764C376.249 54.3402 374.639 57.9459 372.596 58.9675C371.851 59.3401 370.909 59.4601 368.727 59.4604L365.843 59.461V61.4325H379.601C394.393 61.4325 393.709 61.4985 393.696 60.0716C393.685 58.8982 393.399 58.8315 389.98 59.2066C385.987 59.6452 385.343 59.4483 383.983 57.3733C382.496 55.1055 381.443 51.3578 380.771 45.9489C380.602 44.5871 380.475 37.9313 380.475 30.4503C380.475 19.0384 380.532 17.257 380.913 16.7123C381.409 16.0033 382.068 15.925 382.809 16.4875C383.087 16.6982 384.869 19.5775 386.77 22.8861C388.67 26.1944 392.739 33.2741 395.81 38.6185C398.882 43.9629 403.064 51.2507 405.105 54.8137L408.814 61.2917L413.498 61.3689C417.146 61.4292 418.181 61.3669 418.179 61.0872C418.178 60.8898 417.595 59.7145 416.884 58.4752C416.173 57.2359 415.129 55.3347 414.565 54.2504L413.538 52.2788L413.448 37.3511C413.395 28.4159 413.48 20.8112 413.662 18.4073C414.298 9.99057 416.116 4.17159 418.545 2.78162C418.896 2.5808 420.574 2.36449 422.402 2.28506L425.638 2.14424V0.172654H398.062L397.972 1.27054C397.923 1.87441 398.02 2.45406 398.189 2.55827C398.358 2.66276 399.791 2.57911 401.374 2.37266C402.957 2.16621 404.601 2.07213 405.027 2.16367C406.72 2.52757 408.487 5.27286 409.547 9.1856C410.725 13.5363 410.924 16.1349 411.068 29.1177C411.144 36.0529 411.125 42.1668 411.024 42.7042C410.791 43.9463 409.951 44.4609 409.09 43.8888C408.755 43.6663 402.969 33.7391 396.232 21.8285L383.981 0.172654L375.468 0.0980158C368.263 0.0349252 366.93 0.0859047 366.798 0.429805ZM452.37 0.449239C446.841 1.66965 442.199 4.74504 438.546 9.60809C435.27 13.9681 433.146 19.0213 432.094 24.9583C431.432 28.6877 431.425 35.4727 432.078 39.3221C434.22 51.9473 441.768 60.6743 452.468 62.898C454.655 63.3526 455.842 63.4334 458.561 63.3126C464.983 63.0273 469.328 61.256 473.193 57.3474C477.689 52.8007 479.889 47.2019 480.687 38.2712C481.051 34.2013 480.916 33.7391 479.408 33.8864L478.539 33.9712L478.342 36.7878C477.424 49.885 472.199 57.8944 462.97 60.3521C460.362 61.0464 454.894 61.1774 452.511 60.6022C446.71 59.2024 444.282 55.2671 443.032 45.2374C442.466 40.6915 442.387 24.0178 442.91 19.466C443.841 11.3611 445.124 7.66326 447.889 5.11231C449.535 3.59335 451.147 2.9278 454.146 2.5287C461.848 1.50291 468.732 6.26541 473.538 15.9453C474.932 18.754 475.983 21.5243 477.11 25.3608C477.983 28.3331 477.986 28.3384 478.931 28.4291C479.451 28.4789 479.988 28.4091 480.123 28.2736C480.264 28.1328 480.174 26.1015 479.914 23.5353C479.459 19.0579 479.485 11.8109 479.988 3.20044L480.173 0.031827H479.01C477.726 0.031827 477.74 0.00844955 477.431 2.68473C477.179 4.86502 476.083 6.97884 474.915 7.53652C473.992 7.97674 473.849 7.97646 472.678 7.52891C471.99 7.26585 470.368 6.21471 469.074 5.19259C466.157 2.88893 465.01 2.15663 463.131 1.39785C459.803 0.0540777 455.771 -0.301371 452.37 0.449239ZM486.418 2.14424L496.177 2.42589L497.542 4.01611L497.393 58.0372L496.752 58.6785C496.149 59.2838 495.839 59.328 491.265 59.461L486.418 59.6018L486.242 61.4325H511.726C525.742 61.4325 537.223 61.4007 537.24 61.3621C537.351 61.1058 537.968 33.9287 537.866 33.76C537.677 33.4465 535.582 33.504 535.382 33.8279C535.287 33.9814 535.365 36.4272 535.554 39.2629C535.868 43.9471 535.854 44.5981 535.409 46.3744C534.23 51.0722 530.387 55.8741 526.207 57.8733C523.259 59.2835 521.998 59.461 514.927 59.461C508.247 59.461 507.728 59.3629 506.563 57.8795C505.989 57.1494 505.975 56.8644 505.975 45.8517C505.975 35.1877 506.005 34.5086 506.532 33.4203C507.241 31.9534 508.352 31.2938 510.099 31.3017C513.693 31.318 516.588 34.4574 517.885 39.7451C518.518 42.3276 518.919 45.9066 518.919 48.9789V51.6087L521.029 51.4338V8.90395L518.919 8.72904V11.3589C518.919 22.1673 515.423 29.0423 509.927 29.0423C508.764 29.0423 508.359 28.895 507.539 28.1742C506.985 27.6872 506.426 26.8524 506.265 26.273C506.094 25.6576 505.978 21.0143 505.977 14.7863C505.975 4.66674 505.994 4.30904 506.553 3.59729C507.513 2.37576 508.619 2.23014 516.105 2.34027C522.88 2.43997 523.031 2.45518 524.828 3.21396C529.647 5.24864 533.629 9.71765 535.083 14.7215C535.653 16.6841 535.691 18.4735 535.252 22.531C534.867 26.0866 534.938 26.2958 536.487 26.1584C537.1 26.1038 537.361 25.9029 537.499 25.3807C537.602 24.9935 537.737 19.1632 537.799 12.4246L537.913 0.172654L486.244 0.0290104L486.418 2.14424ZM37.0588 3.31705C40.6842 4.54253 43.1146 7.35738 43.9621 11.3129C44.4509 13.5938 44.1349 19.4502 43.3985 21.762C42.3092 25.1805 40.0373 27.6574 37.229 28.4882C35.6499 28.9552 29.7936 29.3848 26.4864 29.276C23.8895 29.1904 23.3762 29.0873 22.2461 28.4243C19.9317 27.0665 19.8737 26.762 19.8737 15.954V6.65071L20.6588 5.3137C22.0064 3.01934 22.5317 2.87541 29.6019 2.86077C34.5446 2.85063 35.9296 2.93541 37.0588 3.31705ZM278.814 3.27339C281.812 4.16455 284.152 6.38596 285.404 9.52866C285.97 10.9516 286.053 11.6546 286.06 15.1004C286.066 17.5755 285.922 19.6203 285.676 20.5926C284.693 24.4676 282.639 27.1326 279.805 28.2094C277.223 29.1904 268.214 29.6901 265.49 29.0037C263.89 28.6003 262.448 27.2599 262.043 25.7999C261.845 25.0861 261.733 21.4424 261.736 15.8045C261.74 7.79789 261.791 6.82252 262.258 5.80575C262.828 4.56224 263.415 3.95415 264.684 3.29198C265.887 2.66417 276.716 2.64981 278.814 3.27339ZM254.179 78C253.968 78.142 253.845 78.6081 253.897 79.0667L253.99 79.8809L258.837 80.0218C264.31 80.1809 264.622 80.3012 265.118 82.4437C265.477 83.9894 265.461 133.679 265.102 134.973C264.562 136.918 264.217 137.04 258.816 137.198L253.99 137.338V139.31H286.632L286.721 138.217C286.77 137.615 286.707 137.028 286.58 136.912C286.454 136.796 284.164 136.865 281.492 137.066C275.914 137.486 274.909 137.345 274.24 136.051C273.87 135.335 273.819 133.82 273.888 125.669L273.969 116.125L274.84 115.043C276.594 112.864 276.945 112.779 284.903 112.612C290.038 112.504 292.557 112.334 294.088 111.991C303.56 109.87 308.421 104.077 308.435 94.8928C308.44 91.471 308.084 89.7279 306.844 87.1133C304.738 82.6716 300.351 79.7463 293.807 78.4197C292.088 78.0713 288.256 77.9693 273.125 77.8699C262.435 77.7998 254.394 77.855 254.179 78ZM314.924 78.1755C314.738 78.3994 314.628 78.8746 314.678 79.2317C314.769 79.8739 314.823 79.8826 319.554 80.0257C322.185 80.1051 324.55 80.2736 324.809 80.3995C325.067 80.5256 325.479 81.0498 325.723 81.5647C326.117 82.3964 326.167 85.4155 326.167 108.591C326.167 136.724 326.198 136.117 324.713 136.964C324.273 137.215 322.527 137.385 319.413 137.479L314.77 137.62L314.682 138.385C314.613 138.988 314.732 139.183 315.245 139.307C315.603 139.394 327.102 139.43 340.799 139.388L365.702 139.31L365.878 136.212C365.974 134.508 366.146 128.271 366.26 122.353L366.467 111.593L365.753 111.414C365.36 111.315 364.764 111.322 364.428 111.429C363.821 111.622 363.818 111.654 364.056 116.031C364.351 121.479 364.275 123.421 363.697 125.227C362.019 130.471 356.942 135.476 351.951 136.806C350.922 137.08 348.565 137.192 343.754 137.193C337.548 137.195 336.927 137.151 336.1 136.646C334.336 135.569 334.327 135.505 334.329 123.904C334.33 117.326 334.442 112.993 334.631 112.315C334.796 111.719 335.356 110.769 335.874 110.203C336.771 109.224 336.906 109.173 338.601 109.178C340.834 109.183 342.547 110.102 343.989 112.068C346.089 114.931 347.006 118.485 347.241 124.664L347.412 129.171L349.526 129.345L349.381 86.6406H347.412L347.226 91.4288C347.073 95.4026 346.916 96.6394 346.307 98.7017C345.413 101.731 344.747 103.077 343.409 104.559C341.969 106.154 340.61 106.779 338.581 106.779C337.189 106.779 336.756 106.656 336.042 106.054C334.47 104.73 334.327 103.616 334.327 92.6636C334.327 87.2797 334.445 82.5648 334.589 82.1857C334.733 81.8063 335.271 81.1963 335.785 80.8296C336.709 80.1696 336.795 80.1626 343.894 80.1665C351.024 80.1705 351.082 80.1753 352.972 80.9295C357.924 82.9056 361.841 87.1214 363.476 92.2368C364.161 94.3794 364.194 94.7264 363.984 97.6252C363.861 99.3292 363.754 101.42 363.746 102.272L363.732 103.822H365.983L366.158 99.5968C366.413 93.4223 366.497 78.4267 366.279 78.0727C366.147 77.8587 358.565 77.7685 340.676 77.7685C318.859 77.7685 315.214 77.8263 314.924 78.1755ZM393.246 78.1735C393.161 78.3963 393.798 81.2498 394.662 84.5144C395.526 87.7794 396.233 90.9271 396.233 91.5099C396.233 92.1611 394.077 98.7476 390.633 108.616C384.046 127.495 383.936 127.79 382.428 130.795C380.122 135.386 378.445 136.955 375.58 137.198C373.731 137.355 373.047 137.918 373.613 138.817C373.899 139.271 374.81 139.316 385.116 139.384C393.143 139.437 396.417 139.367 396.693 139.138C396.904 138.962 397.077 138.533 397.077 138.183C397.077 137.062 396.568 136.915 393.708 137.212C391.361 137.455 390.962 137.427 390.068 136.963C386.253 134.981 386.475 124.026 390.392 121.04C391.917 119.877 393.363 119.686 399.91 119.785C405.162 119.864 406.037 119.942 406.688 120.384C407.48 120.921 407.759 121.536 409.981 127.621C412.478 134.459 412.597 134.843 412.504 135.812C412.36 137.319 411.622 137.523 407.46 137.207C405.542 137.061 403.869 137.047 403.741 137.175C403.613 137.303 403.549 137.836 403.599 138.359L403.69 139.31H430.422V137.338L424.049 137.057L423.006 135.93C421.893 134.728 421.943 134.864 407.012 92.2737C404.46 84.993 402.191 78.7509 401.969 78.4022C401.582 77.7927 401.411 77.7685 397.484 77.7685C394.193 77.7685 393.371 77.8471 393.246 78.1735ZM454.059 78.0665C446.52 78.8301 439.628 84.1539 435.483 92.4146C429.606 104.127 430.286 120.062 437.099 130.297C439.53 133.95 443.755 137.549 447.605 139.247C450.935 140.715 452.556 141 457.576 141C462.914 141 464.426 140.694 468.263 138.837C471.469 137.286 475.155 133.643 476.904 130.297C479.263 125.783 480.544 120.572 480.71 114.806L480.791 111.99L478.399 111.816L478.394 113.593C478.391 114.57 478.207 116.637 477.986 118.186C476.084 131.48 468.723 138.825 457.249 138.878C454.588 138.89 451.254 138.274 449.71 137.486C447.143 136.175 444.964 132.862 443.962 128.748C442.346 122.109 441.959 103.771 443.239 94.554C444.169 87.8636 446.174 83.6568 449.31 81.8173C453.016 79.6432 459.603 79.8046 463.695 82.1699C469.349 85.4385 473.907 92.5447 477.038 102.977C478.007 106.205 478.174 106.489 479.102 106.489C480.406 106.489 480.434 106.318 479.931 101.541C479.537 97.8091 479.497 95.8167 479.691 89.598C479.819 85.4929 479.929 81.1836 479.935 80.0218L479.946 77.9093L478.901 77.8226C477.734 77.7257 477.738 77.717 477.417 80.5476C477.086 83.4588 475.55 85.6549 473.844 85.6549C472.716 85.6549 471.788 85.127 468.432 82.5738C466.839 81.3624 464.727 79.988 463.737 79.5198C460.987 78.2189 457.591 77.7088 454.059 78.0665ZM486.629 77.955C486.436 78.0333 486.278 78.5219 486.278 79.0413V79.9854L491.195 80.0742C495.877 80.1584 496.143 80.1933 496.752 80.8042L497.393 81.4455L497.476 107.984C497.531 125.4 497.462 134.861 497.274 135.508C496.792 137.167 496.269 137.327 490.975 137.433L486.246 137.527L486.418 139.31H537.066L537.268 138.183C537.618 136.228 538.015 112.028 537.703 111.637C537.382 111.236 536.129 111.176 535.564 111.535C535.247 111.735 535.242 112.561 535.529 116.487C535.718 119.079 535.793 121.881 535.695 122.714C535.144 127.411 531.622 132.548 527.125 135.216C524.125 136.995 522.888 137.198 515.028 137.198H508.16L505.975 135.011L505.981 123.782C505.987 113.318 506.024 112.472 506.528 111.362C508.342 107.361 513.954 108.737 516.524 113.814C517.987 116.703 518.912 121.75 518.917 126.864L518.919 129.345L521.029 129.171V86.6406H519.06L518.878 90.443C518.674 94.6946 518.322 97.0382 517.479 99.7376C516.08 104.218 513.43 106.779 510.193 106.779C508.272 106.779 507.178 106.165 506.522 104.718C506.027 103.628 505.987 102.741 505.981 92.8078L505.975 82.0756L506.647 81.3498C507.767 80.1398 509.132 79.9581 516.091 80.0916C523.179 80.2274 524.048 80.395 527.015 82.1961C531.409 84.8634 534.852 89.8025 535.47 94.325C535.605 95.31 535.547 97.3703 535.321 99.5996C535.118 101.611 535.013 103.416 535.087 103.61C535.164 103.81 535.704 103.962 536.336 103.962H537.45L537.6 102.484C537.683 101.671 537.825 95.8561 537.916 89.5631C538.067 79.1467 538.041 78.1054 537.622 77.9448C537.081 77.737 487.145 77.7468 486.629 77.955ZM291.879 81.4717C296.4 83.5934 298.569 88.6705 298.179 96.2158C297.78 103.92 296.061 107.708 292.119 109.569C290.643 110.266 290.312 110.304 285.017 110.391C278.833 110.493 277.14 110.216 275.497 108.832C273.85 107.445 273.828 107.27 273.828 95.5128C273.828 86.5021 273.897 84.6265 274.261 83.7548C274.842 82.3634 275.44 81.7342 276.783 81.1025C277.796 80.6259 278.529 80.5806 284.099 80.6493C290.129 80.7239 290.331 80.7453 291.879 81.4717ZM402.127 105.915C403.993 111.094 405.519 115.585 405.519 115.896C405.519 116.206 405.244 116.753 404.907 117.112C404.307 117.751 404.189 117.763 398.614 117.763C393.292 117.763 392.885 117.727 392.191 117.18C391.696 116.79 391.449 116.326 391.449 115.784C391.449 115.116 397.6 97.1061 398.11 96.2794C398.196 96.1406 398.372 96.133 398.501 96.2628C398.63 96.3924 400.262 100.736 402.127 105.915Z" fill="white"/>
<mask id="mask0_525_1997" style="mask-type:alpha" maskUnits="userSpaceOnUse" x="0" y="79" width="238" height="61">
<path d="M2 79.75H236C236.69 79.75 237.25 80.3096 237.25 81V138C237.25 138.69 236.69 139.25 236 139.25H2C1.30964 139.25 0.75 138.69 0.75 138V81C0.75 80.3096 1.30964 79.75 2 79.75Z" fill="#D9D9D9" stroke="black" stroke-width="1.5"/>
</mask>
<g mask="url(#mask0_525_1997)">
<path d="M2 79.75H236C236.69 79.75 237.25 80.3096 237.25 81V138C237.25 138.69 236.69 139.25 236 139.25H2C1.30964 139.25 0.75 138.69 0.75 138V81C0.75 80.3096 1.30964 79.75 2 79.75Z" stroke="white" stroke-width="1.5"/>
<path d="M-52.2706 178.584L101.653 124.533C102.487 124.24 103.263 125.095 102.891 125.897L38.3424 265.002C38.0543 265.623 37.2417 265.777 36.7459 265.305L-52.6287 180.252C-53.17 179.737 -52.9757 178.831 -52.2706 178.584Z" fill="white"/>
<path d="M79.5302 288.939L121.932 131.409C122.162 130.554 123.307 130.397 123.758 131.158L202.034 263.027C202.384 263.615 202.052 264.373 201.383 264.515L80.7038 290.177C79.9729 290.333 79.336 289.661 79.5302 288.939Z" fill="white"/>
<path d="M261.799 229.944L141.51 119.742C140.858 119.145 141.246 118.057 142.129 118.006L295.231 109.275C295.914 109.236 296.434 109.88 296.252 110.54L263.438 229.473C263.239 230.193 262.35 230.449 261.799 229.944Z" fill="white"/>
<path d="M289.806 42.1226L135.883 96.1734C135.049 96.4665 134.272 95.6113 134.645 94.809L199.193 -44.2952C199.482 -44.9161 200.294 -45.0705 200.79 -44.5987L290.165 40.4547C290.706 40.9699 290.512 41.8751 289.806 42.1226Z" fill="white"/>
<path d="M158.938 -68.7793L116.536 88.7514C116.306 89.6056 115.162 89.7626 114.71 89.0019L36.4337 -42.8666C36.0844 -43.4552 36.4162 -44.2128 37.0856 -44.3552L157.764 -70.0173C158.495 -70.1727 159.132 -69.5008 158.938 -68.7793Z" fill="white"/>
<path d="M-22.244 -8.08934L98.0445 102.113C98.6967 102.711 98.309 103.798 97.4259 103.849L-55.6763 112.58C-56.3596 112.619 -56.8793 111.975 -56.6973 111.316L-23.8835 -7.61795C-23.6848 -8.33828 -22.795 -8.59411 -22.244 -8.08934Z" fill="white"/>
<path d="M-52.2706 178.584L101.653 124.533C102.487 124.24 103.263 125.095 102.891 125.897L38.3424 265.002C38.0543 265.623 37.2417 265.777 36.7459 265.305L-52.6287 180.252C-53.17 179.737 -52.9757 178.831 -52.2706 178.584Z" stroke="white"/>
<path d="M79.5302 288.939L121.932 131.409C122.162 130.554 123.307 130.397 123.758 131.158L202.034 263.027C202.384 263.615 202.052 264.373 201.383 264.515L80.7038 290.177C79.9729 290.333 79.336 289.661 79.5302 288.939Z" stroke="white"/>
<path d="M261.799 229.944L141.51 119.742C140.858 119.145 141.246 118.057 142.129 118.006L295.231 109.275C295.914 109.236 296.434 109.88 296.252 110.54L263.438 229.473C263.239 230.193 262.35 230.449 261.799 229.944Z" stroke="white"/>
<path d="M289.806 42.1226L135.883 96.1734C135.049 96.4665 134.272 95.6113 134.645 94.809L199.193 -44.2952C199.482 -44.9161 200.294 -45.0705 200.79 -44.5987L290.165 40.4547C290.706 40.9699 290.512 41.8751 289.806 42.1226Z" stroke="white"/>
<path d="M158.938 -68.7793L116.536 88.7514C116.306 89.6056 115.162 89.7626 114.71 89.0019L36.4337 -42.8666C36.0844 -43.4552 36.4162 -44.2128 37.0856 -44.3552L157.764 -70.0173C158.495 -70.1727 159.132 -69.5008 158.938 -68.7793Z" stroke="white"/>
<path d="M-22.244 -8.08934L98.0445 102.113C98.6967 102.711 98.309 103.798 97.4259 103.849L-55.6763 112.58C-56.3596 112.619 -56.8793 111.975 -56.6973 111.316L-23.8835 -7.61795C-23.6848 -8.33828 -22.795 -8.59411 -22.244 -8.08934Z" stroke="white"/>
</g>
</svg>
