<svg width="21" height="21" viewBox="0 0 21 21" fill="none" xmlns="http://www.w3.org/2000/svg">
<path fill-rule="evenodd" clip-rule="evenodd" d="M12.8787 1.70729C14.0503 0.535721 15.9497 0.535719 17.1213 1.70729L19.2929 3.87887C20.4645 5.05044 20.4645 6.94993 19.2929 8.12151L11.7071 15.7073C11.5196 15.8948 11.2652 16.0002 11 16.0002H6C5.44772 16.0002 5 15.5525 5 15.0002V10.0002C5 9.73497 5.10536 9.48062 5.29289 9.29308L12.8787 1.70729ZM15.7071 3.12151C15.3166 2.73098 14.6834 2.73098 14.2929 3.12151L13.4142 4.00019L17 7.58597L17.8787 6.70729C18.2692 6.31677 18.2692 5.6836 17.8787 5.29308L15.7071 3.12151ZM15.5858 9.00019L12 5.4144L7 10.4144V14.0002H10.5858L15.5858 9.00019ZM5 3.00019C3.34315 3.00019 2 4.34333 2 6.00019V16.0002C2 17.657 3.34315 19.0002 5 19.0002H15C16.6569 19.0002 18 17.657 18 16.0002V13.0002C18 12.4479 18.4477 12.0002 19 12.0002C19.5523 12.0002 20 12.4479 20 13.0002V16.0002C20 18.7616 17.7614 21.0002 15 21.0002H5C2.23858 21.0002 0 18.7616 0 16.0002V6.00019C0 3.23876 2.23858 1.00019 5 1.00019H8C8.55228 1.00019 9 1.4479 9 2.00019C9 2.55247 8.55228 3.00019 8 3.00019H5Z" fill="#181818"/>
</svg>
