<svg width="17" height="17" viewBox="0 0 17 17" fill="none" xmlns="http://www.w3.org/2000/svg">
<path d="M0.127676 12.5242L2.72314 9.92883L6.39533 13.6009L3.92346 16.0727C3.82458 16.1716 3.67627 16.3199 3.50935 16.153L0.171 12.8147C0.0374657 12.6812 0.0864779 12.5654 0.127676 12.5242Z" fill="white"/>
<path d="M13.1928 6.80287L5.15918 14.8362L1.48699 11.1642L9.39699 3.25438C9.64418 3.0072 9.64418 3.0072 9.8111 3.17411L13.1494 6.51237C13.283 6.6459 13.234 6.76167 13.1928 6.80287Z" fill="white"/>
<path d="M11.0029 16.5369V10.447H16.2435V16.2469C16.2435 16.4789 16.2435 16.8268 16.0053 16.8268H11.2411C11.0506 16.8268 11.0029 16.6335 11.0029 16.5369Z" fill="white"/>
<path d="M11 10.7297V4.63989L16.2405 4.63989V10.4397C16.2405 10.6717 16.2405 11.0197 16.0023 11.0197H11.2382C11.0476 11.0197 11 10.8264 11 10.7297Z" fill="white"/>
<path d="M11.2384 0L16.2407 0V6.37983L11.4766 6.37983C11.286 6.37983 11.0002 6.37983 11.0002 6.08983V0.289992C11.0002 0.0579984 11.159 0 11.2384 0Z" fill="white"/>
<path d="M0.289882 5.00024L6.37988 5.00024L6.37988 0.000261307L0.579883 0.000261307C0.347882 0.000261307 -0.000117779 0.000261307 -0.000117779 0.227533L-0.000117779 4.77297C-0.000117779 4.95479 0.193216 5.00024 0.289882 5.00024Z" fill="white"/>
<path d="M8.12012 4.77289V0.000183105L1.74012 0.000183105V4.54562C1.74012 4.72744 1.74012 5.00017 2.03012 5.00017L7.83012 5.00017C8.06212 5.00017 8.12012 4.84865 8.12012 4.77289Z" fill="white"/>
<path d="M12.4709 5L6.38086 5L6.38086 1.71661e-05L12.1809 1.71661e-05C12.4129 1.71661e-05 12.7609 1.71661e-05 12.7609 0.227289V4.77273C12.7609 4.95455 12.5675 5 12.4709 5Z" fill="white"/>
<path d="M1.74023 4.77302L1.74023 0.000305176L8.12023 0.000305176V4.54574C8.12023 4.72756 8.12023 5.00029 7.83024 5.00029H2.03023C1.79823 5.00029 1.74023 4.84877 1.74023 4.77302Z" fill="white"/>
</svg>
