<svg width="82" height="85" viewBox="0 0 82 85" fill="none" xmlns="http://www.w3.org/2000/svg">
<path d="M81.0673 62.6213L68.0898 49.6443L49.7287 68.0048L62.0882 80.3638C62.5826 80.8582 63.3242 81.5998 64.1588 80.7652L80.8507 64.0738C81.5184 63.4062 81.2733 62.8273 81.0673 62.6213Z" fill="white"/>
<path d="M15.7413 34.0148L55.9097 74.1818L74.2708 55.8213L34.7204 16.2722C33.4844 15.0363 33.4844 15.0363 32.6498 15.8709L15.9579 32.5623C15.2902 33.2299 15.5353 33.8088 15.7413 34.0148Z" fill="white"/>
<path d="M26.6904 82.6846L26.6904 52.2353H0.487408L0.487408 81.2346C0.487408 82.3946 0.487408 84.1345 1.67845 84.1345H25.4994C26.4522 84.1345 26.6904 83.1679 26.6904 82.6846Z" fill="white"/>
<path d="M26.7041 53.6488L26.7041 23.1995L0.50108 23.1995L0.50108 52.1988C0.50108 53.3588 0.50108 55.0988 1.69213 55.0988H25.5131C26.4659 55.0988 26.7041 54.1321 26.7041 53.6488Z" fill="white"/>
<path d="M25.5134 0L0.501465 0L0.501465 31.8992L24.3224 31.8992C25.2752 31.8992 26.7045 31.8992 26.7045 30.4493L26.7045 1.44997C26.7045 0.289993 25.9105 0 25.5134 0Z" fill="white"/>
<path d="M80.2555 25.0012L49.8052 25.0012L49.8052 0.00116539L78.8055 0.00116539C79.9655 0.00116539 81.7055 0.00116539 81.7055 1.13753V23.8648C81.7055 24.7739 80.7388 25.0012 80.2555 25.0012Z" fill="white"/>
<path d="M41.104 23.8646V0.000976562L73.0044 0.000976563V22.7282C73.0044 23.6373 73.0044 25.001 71.5543 25.001L42.554 25.001C41.394 25.001 41.104 24.2434 41.104 23.8646Z" fill="white"/>
<path d="M19.3505 25.0001L49.8008 25.0001L49.8008 6.67572e-05L20.8005 6.67572e-05C19.6405 6.67572e-05 17.9004 6.67572e-05 17.9004 1.13643L17.9004 23.8637C17.9004 24.7728 18.8671 25.0001 19.3505 25.0001Z" fill="white"/>
<path d="M73.0049 23.8653V0.00164795L41.1045 0.00164795V22.7289C41.1045 23.638 41.1045 25.0016 42.5546 25.0016H71.5549C72.7149 25.0016 73.0049 24.2441 73.0049 23.8653Z" fill="white"/>
</svg>
